<svg id="Слой_1" data-name="Слой 1" xmlns="http://www.w3.org/2000/svg" viewBox="0 0 90 50"><defs><style>.cls-1{fill:#f4c4bb;}.cls-2{fill:#f2a68f;}.cls-3{font-size:6.53px;fill:#fff;font-family:Comfortaa-Regular, Comfortaa;}.cls-4{letter-spacing:-0.02em;}.cls-5{fill:none;stroke:#fff;stroke-miterlimit:10;stroke-width:0.2px;}</style></defs><rect class="cls-1" x="5.23" y="10.69" width="26.11" height="26.11" rx="5" transform="translate(8.44 -4.56) rotate(18.41)"/><rect class="cls-2" x="5.33" y="10.54" width="26.11" height="26.11" rx="5"/><text class="cls-3" transform="translate(35.46 26.55)">ORTH<tspan class="cls-4" x="19.83" y="0">O</tspan><tspan x="25.71" y="0">СHEFF</tspan></text><path class="cls-5" d="M18.82,16.83c5.73-2.53,7,1.37,6.69,4"/><path class="cls-5" d="M18.82,16.83c-5.73-2.53-7,1.37-6.69,4"/><line class="cls-5" x1="12.13" y1="20.78" x2="15.97" y2="20.78"/><line class="cls-5" x1="15.97" y1="20.15" x2="15.97" y2="20.78"/><line class="cls-5" x1="16.95" y1="20.15" x2="15.97" y2="20.15"/><line class="cls-5" x1="16.95" y1="19.76" x2="16.95" y2="20.15"/><line class="cls-5" x1="17.84" y1="19.76" x2="16.95" y2="19.76"/><line class="cls-5" x1="17.84" y1="20.27" x2="17.84" y2="19.76"/><line class="cls-5" x1="18.82" y1="20.27" x2="17.84" y2="20.27"/><line class="cls-5" x1="25.51" y1="20.78" x2="21.63" y2="20.78"/><line class="cls-5" x1="21.63" y1="20.15" x2="21.63" y2="20.78"/><line class="cls-5" x1="20.63" y1="20.15" x2="21.63" y2="20.15"/><line class="cls-5" x1="20.63" y1="19.77" x2="20.63" y2="20.15"/><line class="cls-5" x1="19.73" y1="19.77" x2="20.63" y2="19.77"/><line class="cls-5" x1="19.73" y1="20.28" x2="19.73" y2="19.77"/><line class="cls-5" x1="18.74" y1="20.28" x2="19.73" y2="20.28"/><line class="cls-5" x1="16.67" y1="20.78" x2="20.96" y2="20.78"/><line class="cls-5" x1="20.96" y1="22.3" x2="16.67" y2="22.32"/><line class="cls-5" x1="20.96" y1="20.78" x2="20.96" y2="22.3"/><line class="cls-5" x1="16.67" y1="20.78" x2="16.67" y2="22.32"/><line class="cls-5" x1="18.82" y1="22.77" x2="17.76" y2="22.77"/><line class="cls-5" x1="17.76" y1="23.29" x2="17.76" y2="22.77"/><line class="cls-5" x1="16.88" y1="23.29" x2="17.76" y2="23.29"/><line class="cls-5" x1="16.88" y1="22.77" x2="16.88" y2="23.29"/><line class="cls-5" x1="15.97" y1="22.77" x2="16.88" y2="22.77"/><line class="cls-5" x1="15.97" y1="22.11" x2="15.97" y2="22.77"/><line class="cls-5" x1="12.45" y1="22.11" x2="15.97" y2="22.11"/><path class="cls-5" d="M12.5,22.11c0,.9.47,1.63,1,1.63"/><path class="cls-5" d="M13.49,23.74c0,4.24,1,7.67,2.35,7.67"/><path class="cls-5" d="M16,26.59c0-1.14,1.27-2.07,2.85-2.07"/><line class="cls-5" x1="15.97" y1="26.59" x2="15.97" y2="31.41"/><line class="cls-5" x1="16.67" y1="22.3" x2="20.96" y2="22.32"/><line class="cls-5" x1="20.96" y1="20.78" x2="20.96" y2="22.32"/><line class="cls-5" x1="18.82" y1="22.77" x2="19.88" y2="22.77"/><line class="cls-5" x1="19.88" y1="23.29" x2="19.88" y2="22.77"/><line class="cls-5" x1="20.75" y1="23.29" x2="19.88" y2="23.29"/><line class="cls-5" x1="20.75" y1="22.77" x2="20.75" y2="23.29"/><line class="cls-5" x1="21.67" y1="22.77" x2="20.75" y2="22.77"/><line class="cls-5" x1="21.67" y1="22.11" x2="21.67" y2="22.77"/><line class="cls-5" x1="25.18" y1="22.11" x2="21.67" y2="22.11"/><path class="cls-5" d="M25.13,22.11c0,.9-.46,1.63-1,1.63"/><path class="cls-5" d="M24.14,23.74c0,4.24-1.05,7.67-2.35,7.67"/><path class="cls-5" d="M21.67,26.59c0-1.14-1.28-2.07-2.85-2.07"/><line class="cls-5" x1="21.67" y1="26.59" x2="21.67" y2="31.41"/></svg>